<svg width="41" height="41" viewBox="0 0 41 41" fill="none" xmlns="http://www.w3.org/2000/svg">
<path d="M25.092 2.56176V15.2476C25.092 15.927 25.362 16.5786 25.8425 17.059C26.3231 17.5394 26.9749 17.8093 27.6545 17.8093H38.4375V38.4264H26.5373C26.3702 38.4117 26.2021 38.4117 26.035 38.4264C25.8679 38.4107 25.6998 38.4107 25.5327 38.4264H2.5625V2.56176H25.1125H25.092ZM25.625 0H2.05C1.50631 0 0.984881 0.215919 0.600431 0.600257C0.215982 0.984595 0 1.50587 0 2.04941L0 38.9387C0 39.4823 0.215982 40.0035 0.600431 40.3879C0.984881 40.7722 1.50631 40.9881 2.05 40.9881H25.625C25.7715 41.004 25.9193 41.004 26.0657 40.9881C26.1474 40.9987 26.2301 40.9987 26.3118 40.9881H39.7597C40.0887 40.9881 40.4041 40.8575 40.6367 40.625C40.8693 40.3924 41 40.0771 41 39.7482V16.4875C41 16.1586 40.8693 15.8433 40.6367 15.6107C40.4041 15.3782 40.0887 15.2476 39.7597 15.2476H27.675V2.04941C27.675 1.50587 27.459 0.984595 27.0746 0.600257C26.6901 0.215919 26.1687 0 25.625 0V0ZM27.675 38.99V14.4688C27.675 14.1291 27.54 13.8033 27.2997 13.5631C27.0595 13.3229 26.7336 13.1879 26.3937 13.1879C26.0539 13.1879 25.728 13.3229 25.4878 13.5631C25.2475 13.8033 25.1125 14.1291 25.1125 14.4688V38.99C25.1125 39.3297 25.2475 39.6555 25.4878 39.8957C25.728 40.1359 26.0539 40.2708 26.3937 40.2708C26.7336 40.2708 27.0595 40.1359 27.2997 39.8957C27.54 39.6555 27.675 39.3297 27.675 38.99V38.99ZM20.992 8.84319C20.992 8.67498 20.9589 8.50842 20.8945 8.35302C20.8301 8.19761 20.7357 8.05641 20.6167 7.93747C20.4978 7.81853 20.3565 7.72418 20.2011 7.65981C20.0456 7.59544 19.879 7.56231 19.7107 7.56231H7.67725C7.33748 7.56237 7.01165 7.69734 6.77142 7.93755C6.53118 8.17775 6.39623 8.50352 6.39623 8.84319C6.39623 9.18286 6.53118 9.50862 6.77142 9.74883C7.01165 9.98903 7.33748 10.124 7.67725 10.1241H19.7107C20.0506 10.1241 20.3764 9.98912 20.6167 9.74891C20.857 9.50869 20.992 9.1829 20.992 8.84319V8.84319ZM20.992 17.0408C20.992 16.8726 20.9589 16.706 20.8945 16.5506C20.8301 16.3952 20.7357 16.254 20.6167 16.1351C20.4978 16.0162 20.3565 15.9218 20.2011 15.8574C20.0456 15.7931 19.879 15.7599 19.7107 15.7599H7.67725C7.33744 15.7599 7.01155 15.8949 6.77127 16.1351C6.53099 16.3753 6.396 16.7011 6.396 17.0408C6.396 17.3805 6.53099 17.7063 6.77127 17.9465C7.01155 18.1867 7.33744 18.3217 7.67725 18.3217H19.7107C20.0436 18.3219 20.3634 18.1926 20.6025 17.9611C20.8417 17.7297 20.9813 17.4144 20.992 17.0818V17.0408ZM36.7257 22.1643C36.7312 22.0015 36.7045 21.8392 36.6472 21.6866C36.5899 21.5341 36.5031 21.3944 36.3917 21.2754C36.2803 21.1564 36.1466 21.0606 35.9981 20.9933C35.8497 20.9261 35.6894 20.8887 35.5265 20.8834H30.668C30.3282 20.8835 30.0024 21.0185 29.7622 21.2587C29.5219 21.4989 29.387 21.8247 29.387 22.1643C29.387 22.504 29.5219 22.8298 29.7622 23.07C30.0024 23.3102 30.3282 23.4451 30.668 23.4452H35.5265C35.8483 23.4346 36.1533 23.2993 36.3771 23.0679C36.6009 22.8365 36.7259 22.5272 36.7257 22.2053V22.1643ZM36.7257 27.1751C36.7312 27.0123 36.7045 26.85 36.6472 26.6974C36.5899 26.5449 36.5031 26.4052 36.3917 26.2862C36.2803 26.1672 36.1466 26.0714 35.9981 26.0041C35.8497 25.9369 35.6894 25.8995 35.5265 25.8942H30.668C30.3282 25.8943 30.0024 26.0293 29.7622 26.2695C29.5219 26.5097 29.387 26.8355 29.387 27.1751C29.387 27.5148 29.5219 27.8406 29.7622 28.0808C30.0024 28.321 30.3282 28.4559 30.668 28.456H35.5265C35.8483 28.4454 36.1533 28.3101 36.3771 28.0787C36.6009 27.8473 36.7259 27.538 36.7257 27.2161V27.1751ZM36.7257 32.1859C36.7312 32.0231 36.7045 31.8607 36.6472 31.7082C36.5899 31.5557 36.5031 31.416 36.3917 31.297C36.2803 31.178 36.1466 31.0822 35.9981 31.0149C35.8497 30.9477 35.6894 30.9103 35.5265 30.905H30.668C30.3282 30.9051 30.0024 31.0401 29.7622 31.2803C29.5219 31.5205 29.387 31.8463 29.387 32.1859C29.387 32.5256 29.5219 32.8514 29.7622 33.0916C30.0024 33.3318 30.3282 33.4667 30.668 33.4668H35.5265C35.8483 33.4562 36.1533 33.3208 36.3771 33.0895C36.6009 32.8581 36.7259 32.5488 36.7257 32.2269V32.1859ZM20.992 38.3341V28.0666C20.992 27.1834 20.641 26.3363 20.0163 25.7117C19.3916 25.0872 18.5443 24.7363 17.6607 24.7363H9.93225C9.04958 24.739 8.20383 25.0908 7.57969 25.7147C6.95554 26.3387 6.6037 27.1842 6.601 28.0666V38.4161L20.992 38.3341ZM9.1635 28.0666C9.16615 27.8636 9.248 27.6697 9.3916 27.5261C9.53519 27.3826 9.72919 27.3007 9.93225 27.2981H17.6607C17.7617 27.2981 17.8617 27.318 17.9549 27.3566C18.0482 27.3952 18.133 27.4518 18.2043 27.5232C18.2757 27.5946 18.3323 27.6793 18.371 27.7725C18.4096 27.8658 18.4295 27.9657 18.4295 28.0666V38.3136H9.2045L9.1635 28.0666Z" fill="#5BD8EA"/>
</svg>
