<svg width="41" height="41" viewBox="0 0 41 41" fill="none" xmlns="http://www.w3.org/2000/svg">
<path d="M37.2711 15.7738L31.061 14.0807L32.0412 10.4839L41 12.928V16.7914H40.9981V41L37.2711 40.0682V39.9843L27.3321 37.2727L13.667 41L0.000931766 37.2727V13.1852H0V9.32098L9.93809 12.0326L8.95789 15.6285L3.72795 14.2009V34.4251L13.667 37.1357L27.3321 33.4085L37.2711 36.1201V15.7738ZM20.4995 24.2273C14.2875 17.7185 11.182 12.7491 11.182 9.31818C11.182 4.17175 15.3535 0 20.4995 0C25.6456 0 29.8171 4.17175 29.8171 9.31818C29.8171 12.7491 26.7115 17.7185 20.4995 24.2273ZM26.0901 9.31818C26.0901 8.58397 25.9455 7.85695 25.6645 7.17863C25.3836 6.50031 24.9718 5.88398 24.4526 5.36481C23.9335 4.84565 23.3172 4.43382 22.6389 4.15286C21.9607 3.87189 21.2337 3.72727 20.4995 3.72727C19.7654 3.72727 19.0384 3.87189 18.3601 4.15286C17.6819 4.43382 17.0656 4.84565 16.5464 5.36481C16.0273 5.88398 15.6155 6.50031 15.3346 7.17863C15.0536 7.85695 14.909 8.58397 14.909 9.31818C14.909 11.0952 16.7399 14.3407 20.4995 18.6923C24.2592 14.3407 26.0901 11.0952 26.0901 9.31818ZM20.4995 11.1818C20.2548 11.1819 20.0124 11.1337 19.7863 11.04C19.5602 10.9464 19.3547 10.8091 19.1817 10.6361C19.0086 10.463 18.8713 10.2576 18.7776 10.0314C18.684 9.8053 18.6358 9.56294 18.6358 9.31818C18.6358 9.07342 18.684 8.83106 18.7776 8.60494C18.8713 8.37881 19.0086 8.17335 19.1817 8.0003C19.3547 7.82724 19.5602 7.68997 19.7863 7.59633C20.0124 7.50269 20.2548 7.45451 20.4995 7.45455C20.9937 7.45462 21.4676 7.651 21.8171 8.00049C22.1665 8.34998 22.3628 8.82396 22.3628 9.31818C22.3628 9.8124 22.1665 10.2864 21.8171 10.6359C21.4676 10.9854 20.9937 11.1817 20.4995 11.1818ZM12.1137 23.2955H15.8408V34.4773H12.1137V23.2955ZM25.1574 21.4318H28.8844V30.75H25.1574V21.4318Z" fill="#5BD8EA"/>
</svg>
